<svg width="32" height="32" viewBox="0 0 32 32" fill="none" xmlns="http://www.w3.org/2000/svg">
<path fill-rule="evenodd" clip-rule="evenodd" d="M16.0004 0.999908C11.181 0.999908 7.27415 4.63067 7.27415 9.10945V13.1907H5.16389C2.86445 13.1907 1.00039 14.923 1.00039 17.06V27.1307C1.00039 29.2676 2.86445 30.9999 5.16389 30.9999H26.8369C29.1363 30.9999 31.0004 29.2676 31.0004 27.1307V17.06C31.0004 14.923 29.1363 13.1907 26.8369 13.1907H24.7266V9.10945C24.7266 4.63067 20.8198 0.999908 16.0004 0.999908ZM22.1031 13.1907V9.10945C22.1031 5.97723 19.3708 3.43807 16.0004 3.43807C12.63 3.43807 9.89773 5.97723 9.89773 9.10945V13.1907H22.1031ZM5.16389 15.6289C4.31341 15.6289 3.62396 16.2696 3.62396 17.06V27.1307C3.62396 27.921 4.31341 28.5617 5.16389 28.5617H26.8369C27.6874 28.5617 28.3768 27.921 28.3768 27.1307V17.06C28.3768 16.2696 27.6874 15.6289 26.8369 15.6289H5.16389Z" fill="#CBD5E0"/>
</svg>
