<svg width="32" height="32" viewBox="0 0 32 32" fill="none" xmlns="http://www.w3.org/2000/svg">
<path fill-rule="evenodd" clip-rule="evenodd" d="M10.5049 1.25253C11.1871 1.25253 11.7402 1.76741 11.7402 2.40253V3.96998H20.2966V2.40253C20.2966 1.76741 20.8497 1.25253 21.532 1.25253C22.2142 1.25253 22.7673 1.76741 22.7673 2.40253V3.96998H26.7278C29.0871 3.96998 30.9997 5.75048 30.9997 7.94683V26.7707C30.9997 28.9671 29.0871 30.7476 26.7278 30.7476H5.2717C2.91236 30.7476 0.999737 28.9671 0.999737 26.7707V7.94683C0.999737 5.75048 2.91236 3.96998 5.27169 3.96998H9.26953V2.40253C9.26953 1.76741 9.82261 1.25253 10.5049 1.25253ZM20.2966 6.26998V8.03163C20.2966 8.66676 20.8497 9.18163 21.532 9.18163C22.2142 9.18163 22.7673 8.66676 22.7673 8.03163V6.26998H26.7278C27.7226 6.26998 28.5291 7.02073 28.5291 7.94683V13.0004H3.47041V7.94683C3.47041 7.02073 4.27687 6.26998 5.27169 6.26998H9.26953V8.03163C9.26953 8.66676 9.82261 9.18163 10.5049 9.18163C11.1871 9.18163 11.7402 8.66676 11.7402 8.03163V6.26998H20.2966ZM3.47041 15.3004V26.7707C3.47041 27.6968 4.27687 28.4476 5.2717 28.4476H26.7278C27.7226 28.4476 28.5291 27.6968 28.5291 26.7707V15.3004H3.47041Z" fill="#CBD5E0"/>
</svg>
