<svg width="32" height="32" viewBox="0 0 32 32" fill="none" xmlns="http://www.w3.org/2000/svg">
<path fill-rule="evenodd" clip-rule="evenodd" d="M3.8125 7.8H28.1875C28.5499 7.8 28.8438 8.1134 28.8438 8.5V10.16H3.15625V8.5C3.15625 8.1134 3.45006 7.8 3.8125 7.8ZM3.15625 12.46V23.5C3.15625 23.8866 3.45006 24.2 3.8125 24.2H28.1875C28.5499 24.2 28.8438 23.8866 28.8438 23.5V12.46H3.15625ZM1 8.5C1 6.84315 2.2592 5.5 3.8125 5.5H28.1875C29.7408 5.5 31 6.84315 31 8.5V23.5C31 25.1569 29.7408 26.5 28.1875 26.5H3.8125C2.2592 26.5 1 25.1569 1 23.5V8.5ZM13.9987 21.0503H5.56116V18.7503H13.9987V21.0503ZM22.4362 21.0503H26.6549V18.7503H22.4362V21.0503Z" fill="#CBD5E0"/>
</svg>
