<svg width="32" height="33" viewBox="0 0 32 33" fill="none" xmlns="http://www.w3.org/2000/svg">
<path fill-rule="evenodd" clip-rule="evenodd" d="M16.001 3.30543C12.6495 3.30543 9.93253 5.8684 9.93253 9.02999C9.93253 12.1916 12.6495 14.7545 16.001 14.7545C19.3525 14.7545 22.0694 12.1916 22.0694 9.02999C22.0694 5.8684 19.3525 3.30543 16.001 3.30543ZM7.49437 9.02999C7.49437 4.59815 11.3029 1.00543 16.001 1.00543C20.699 1.00543 24.5076 4.59815 24.5076 9.02999C24.5076 13.4618 20.699 17.0545 16.001 17.0545C11.3029 17.0545 7.49437 13.4618 7.49437 9.02999ZM1.0004 25.9941C1.0004 22.2407 3.95622 19.0054 7.84245 19.0054H24.1583C28.0446 19.0054 31.0004 22.2407 31.0004 25.9941V31.1554C31.0004 31.7906 30.4546 32.3054 29.7813 32.3054C29.108 32.3054 28.5622 31.7906 28.5622 31.1554V25.9941C28.5622 23.2983 26.4831 21.3054 24.1583 21.3054H7.84245C5.51772 21.3054 3.43856 23.2983 3.43856 25.9941V31.1554C3.43856 31.7906 2.89276 32.3054 2.21948 32.3054C1.5462 32.3054 1.0004 31.7906 1.0004 31.1554V25.9941Z" fill="#CBD5E0"/>
</svg>
